<svg xmlns="http://www.w3.org/2000/svg" viewBox="0 0 892.58 782.59">
    <path d="M424.91,332c39.29-6.79,83-10.21,122.36-16.75,41.86-7,66.6-36,61.26-76.44-9.16-93.1-82.35-203.09-186.7-175.2C384,74,353.3,97.83,330.18,133.36q-53.61,82.37-105.63,165.75C177.39,375,129.74,450.54,83.1,526.71l-.17.24c70.51-96.63,163.45-159.54,333.18-193.25Z" transform="translate(-4.43 -59.23)" style="fill:#027dfd"/>
    <path d="M519,485.52C368.78,549.87,301.11,705.21,300.9,705.07c0,0-5.62,7.95,0,0,23.87-24.19,55.29-36.79,89.68-45.27,128.27-33.44,186.81,27.47,264.84,125.59,82.44,110,230.85,43.38,241.58-64.62C897.66,553.65,703.89,393.92,519,485.52Z" transform="translate(-4.43 -59.23)" style="fill:#027dfd"/>
    <path d="M413.91,502.93c-27.1-9-48.88-27.9-59.76-51.86-13.91-30.66-9.8-70.42,24.52-101.46C182.38,397.25,101,489.72,24.24,639l-.25.45c-42.3,69.92-10.1,135.22,40.57,168.92,49.59,33,124.57,38.81,172-26.33l.07-.09c18.48-24.52,35.08-48.28,51.14-71.26l4.56-6.52h0l.4-.57c.24-.36.49-.71.74-1.07.42-.58.72-1,.95-1.34l.16-.34c6.49-13.68,25-49.88,56.6-90.43,32.57-41.78,68.93-75.79,108.55-101.6A124.16,124.16,0,0,1,413.91,502.93Z" transform="translate(-4.43 -59.23)" style="fill:#0553b1"/>
</svg>